# Blender v2.79 (sub 0) OBJ File: ''
# www.blender.org
mtllib coordSys.mtl
o Cube
v 1.400000 -1.000000 1.000000
v -0.600000 -1.000000 1.000000
v -0.600000 -1.000000 -2.000000
v -0.600001 3.000000 0.999999
v 0.400000 0.000000 0.000000
v 0.400000 -1.000000 1.000000
v 1.400000 -1.000000 0.000000
v 1.400000 0.000000 1.000000
v -0.600000 -1.000000 0.000000
v -0.600000 0.000000 1.000000
v 0.400000 -1.000000 -2.000000
v -0.600000 0.000000 -2.000000
v 0.399999 3.000000 1.000000
v -0.600000 3.000000 -0.000000
v 1.400000 0.000000 0.000000
v 0.400000 0.000000 -2.000000
v -0.600000 0.000000 -0.000000
v 0.400000 0.000000 1.000000
v 0.400000 3.000000 0.000000
v 0.400000 -1.000000 0.000000
vn 0.0000 -1.0000 0.0000
vn -0.0000 0.0000 1.0000
vn 0.0000 1.0000 0.0000
vn 0.0000 0.0000 -1.0000
vn 1.0000 0.0000 0.0000
vn -1.0000 -0.0000 -0.0000
usemtl Material
s off
f 20//1 9//1 3//1 11//1
f 18//2 13//2 4//2 10//2
f 5//3 18//3 8//3 15//3
f 5//4 15//4 7//4 20//4
f 8//5 1//5 7//5 15//5
f 3//4 12//4 16//4 11//4
f 9//6 17//6 12//6 3//6
f 2//6 10//6 17//6 9//6
f 10//6 4//6 14//6 17//6
f 6//2 18//2 10//2 2//2
f 1//2 8//2 18//2 6//2
f 13//3 19//3 14//3 4//3
f 20//5 11//5 16//5 5//5
f 1//1 6//1 20//1 7//1
f 6//1 2//1 9//1 20//1
f 18//5 5//5 19//5 13//5
f 17//4 14//4 19//4 5//4
f 5//3 16//3 12//3 17//3
